<svg width="24" height="25" viewBox="0 0 24 25" fill="none" xmlns="http://www.w3.org/2000/svg">
<path d="M6.7664 0.446423C7.09445 0.158664 7.51593 0 7.9523 0H22.2016C23.1948 0 23.9999 0.805147 23.9999 1.79835V7.19338C23.9999 8.18658 23.1948 8.99173 22.2016 8.99173H1.80196C0.142526 8.99173 -0.631432 6.93575 0.616059 5.84146L6.7664 0.446423Z" fill="white"/>
<path d="M22.2022 2.35825e-07C23.1954 2.79239e-07 24.0005 0.805147 24.0005 1.79835L24.0005 16.389C24.0005 16.8364 23.8338 17.2677 23.5328 17.5987L18.1378 23.5333C17.0321 24.7495 15.0088 23.9673 15.0088 22.3236L15.0088 1.79835C15.0088 0.805147 15.8139 -4.34141e-08 16.8071 0L22.2022 2.35825e-07Z" fill="white"/>
<path d="M11.3186 11.1572C12.1132 11.1572 12.7573 11.8014 12.7573 12.5959L12.7573 18.7415C12.7573 20.0233 11.2077 20.6652 10.3014 19.7588L4.15571 13.6132C3.24939 12.7069 3.89129 11.1572 5.17301 11.1572L11.3186 11.1572Z" fill="#D8ECFF"/>
<path d="M15.0083 10.4304C15.0083 11.225 18.2304 8.36218 17.4358 8.36218C16.6413 8.36218 14.3786 8.88702 14.3786 8.09246C14.3786 7.2979 12.7751 8.99174 13.5696 8.99174C14.3642 8.99174 15.0083 9.63585 15.0083 10.4304Z" fill="white"/>
</svg>
