<svg width="66" height="66" viewBox="0 0 66 66" fill="none" xmlns="http://www.w3.org/2000/svg">
<path d="M44.6581 18.1797H20.0284C19.1488 18.1797 18.3355 18.6493 17.8957 19.4115C17.4553 20.1732 17.4553 21.1124 17.8957 21.874C18.3355 22.6363 19.1487 23.1059 20.0284 23.1059H44.6581C45.5383 23.1059 46.3509 22.6363 46.7913 21.874C47.2311 21.1124 47.2311 20.1731 46.7913 19.4115C46.3509 18.6493 45.5383 18.1797 44.6581 18.1797Z" fill="#C1E0FF"/>
<path d="M44.6581 29.6736H20.0284C19.1488 29.6736 18.3355 30.1426 17.8957 30.9048C17.4553 31.6671 17.4553 32.6057 17.8957 33.368C18.3355 34.1296 19.1487 34.5992 20.0284 34.5992H44.6581C45.5383 34.5992 46.3509 34.1296 46.7913 33.368C47.2311 32.6057 47.2311 31.667 46.7913 30.9048C46.3509 30.1426 45.5383 29.6736 44.6581 29.6736Z" fill="#C1E0FF"/>
<path d="M65.8396 10.9872C65.8396 8.15641 64.7148 5.44202 62.7134 3.44042C60.7119 1.43896 57.9974 0.314209 55.1666 0.314209H10.8332C8.00236 0.314209 5.28797 1.43895 3.28637 3.44042C1.28491 5.44187 0.160156 8.15641 0.160156 10.9872V40.5428V40.5422C0.160156 43.373 1.2849 46.088 3.28637 48.0895C5.28782 50.0909 8.00236 51.2151 10.8332 51.2151H26.2428L39.7482 64.5235C40.4217 65.2032 41.3363 65.5898 42.2932 65.599C42.808 65.6018 43.316 65.4781 43.7712 65.2376C44.3033 64.9599 44.7373 64.5246 45.0134 63.9915C45.2894 63.4577 45.3948 62.8524 45.3146 62.2574L45.0271 51.2151H55.1664C57.9972 51.2151 60.7115 50.091 62.7132 48.0895C64.7146 46.088 65.8394 43.3729 65.8394 40.5423L65.8396 10.9872ZM60.9134 40.5428V40.5422C60.9134 42.0667 60.308 43.5282 59.2303 44.606C58.1525 45.6838 56.6911 46.2896 55.1666 46.2896H42.4744C41.8095 46.289 41.1727 46.5576 40.7088 47.0341C40.2449 47.51 39.9935 48.1537 40.0113 48.818L40.2575 58.1114L28.9855 46.9958C28.5234 46.5417 27.9009 46.288 27.2532 46.2897H10.8334C9.30904 46.2897 7.84753 45.6838 6.76969 44.6061C5.69191 43.5283 5.08666 42.0669 5.08666 40.5424V10.9867V10.9873C5.08666 9.46292 5.69198 8.00141 6.76969 6.92357C7.84747 5.84578 9.30889 5.24054 10.8334 5.24054H55.1668C56.6912 5.24054 58.1528 5.84586 59.2306 6.92357C60.3084 8.00135 60.9136 9.46277 60.9136 10.9873L60.9134 40.5428Z" fill="#C1E0FF"/>
</svg>
