<svg width="64" height="75" viewBox="0 0 64 75" fill="none" xmlns="http://www.w3.org/2000/svg">
<path d="M63.6802 60.8744V54.7922H58.8031C58.5309 53.7778 58.1215 52.8038 57.5864 51.8973L61.0375 48.4854L56.6866 44.1839L53.2355 47.5958C52.3186 47.0668 51.3334 46.6621 50.3074 46.393V41.5713H44.1552V46.393C43.1287 46.6621 42.1434 47.0668 41.2253 47.5958L37.7743 44.1839L33.4233 48.4854L36.8744 51.8973C36.3394 52.8038 35.9305 53.7777 35.6578 54.7922H30.7812V60.8744H35.6578C35.9305 61.8893 36.3394 62.8639 36.8744 63.771L33.4233 67.1828L37.7743 71.4843L41.2253 68.0725C42.1434 68.6014 43.1286 69.0062 44.1552 69.2753V74.097H50.3074V69.2753C51.3334 69.0062 52.3186 68.6014 53.2355 68.0725L56.6866 71.4843L61.0375 67.1828L57.5864 63.771C58.1215 62.8639 58.5309 61.8894 58.8031 60.8744H63.6802ZM54.7552 60.8744C54.7458 60.8973 54.737 60.9202 54.726 60.943V60.9425C53.8983 62.8824 52.3367 64.4258 50.3751 65.2445C50.3519 65.2554 50.3304 65.2642 50.3073 65.2734C48.3357 66.0699 46.1266 66.0699 44.1551 65.2734C44.132 65.2642 44.1089 65.2554 44.0857 65.2445H44.0863C42.1247 64.4258 40.5635 62.8824 39.7353 60.9425C39.7243 60.9196 39.7155 60.8967 39.7061 60.8739V60.8744C38.9 58.9252 38.9 56.7413 39.7061 54.7922C39.7155 54.7693 39.7249 54.748 39.7353 54.7252C40.563 52.7858 42.1241 51.2424 44.0863 50.4237C44.1094 50.4128 44.1325 50.4041 44.1557 50.3948H44.1551C46.1268 49.5984 48.3358 49.5984 50.3073 50.3948C50.3304 50.4041 50.3519 50.4128 50.3751 50.4237C52.3372 51.2419 53.8988 52.7853 54.726 54.7252C54.737 54.748 54.7458 54.7693 54.7552 54.7922C55.5608 56.7414 55.5608 58.9253 54.7552 60.8744Z" fill="#C1E0FF"/>
<path d="M35.0258 29.8852C35.3807 29.5354 35.5807 29.0604 35.5807 28.5652C35.5813 28.07 35.3824 27.5944 35.028 27.2442C34.6737 26.8944 34.1932 26.6978 33.6924 26.6978C33.1915 26.6983 32.711 26.8955 32.3572 27.2463L26.3577 33.1777C25.3802 32.9745 24.3614 33.1995 23.564 33.7949C22.7666 34.3908 22.2696 35.2984 22.2007 36.2834C22.1313 37.2689 22.4977 38.2358 23.2041 38.9342C23.9106 39.6326 24.8881 39.9943 25.8849 39.9262C26.8817 39.8581 27.7997 39.3668 28.402 38.5785C29.0043 37.7902 29.2324 36.783 29.0263 35.8165L35.0258 29.8852Z" fill="#C1E0FF"/>
<path d="M25.678 50.4276C25.1721 50.4188 24.6834 50.6117 24.3224 50.9625C23.9615 51.3133 23.7582 51.7927 23.7582 52.2934V55.4186C19.339 54.9812 15.2095 53.0462 12.0694 49.9417C8.92959 46.837 6.97235 42.7541 6.5304 38.3851H9.62714C10.6708 38.3976 11.5347 37.5865 11.5766 36.5558C11.5865 36.0546 11.392 35.5709 11.0372 35.2135C10.6823 34.8556 10.1969 34.654 9.68991 34.654H6.5304C6.97287 30.2856 8.92959 26.2031 12.0699 23.0986C15.2102 19.9945 19.3396 18.0595 23.7582 17.622V20.7473C23.7576 21.2479 23.9615 21.7273 24.3224 22.0782C24.6834 22.429 25.1721 22.6218 25.678 22.6126C26.7221 22.5734 27.5448 21.7186 27.5322 20.6858V17.622C31.9509 18.0595 36.0803 19.9951 39.2199 23.099C42.3597 26.2031 44.3175 30.2855 44.7599 34.6539H41.6004C41.0934 34.6539 40.608 34.8555 40.2525 35.2128C39.8977 35.5707 39.7032 36.055 39.7136 36.5557C39.7555 37.5869 40.6195 38.3975 41.6626 38.385H50.82C50.8669 37.7683 50.8906 37.1467 50.8911 36.5191V36.5197C50.8966 31.0802 49.0954 25.7895 45.7638 21.4609L47.5678 19.6784C47.7623 19.4861 47.872 19.2252 47.872 18.9534C47.872 18.681 47.7623 18.42 47.5678 18.2277L44.1465 14.8464H44.1471C43.7415 14.446 43.0853 14.446 42.6797 14.847L40.8768 16.6294C37.3188 13.954 33.103 12.2664 28.6645 11.7397V6.92889H32.0599C33.1388 6.92889 34.1356 6.36016 34.675 5.43625C35.2145 4.51288 35.2145 3.37491 34.675 2.45099C34.1356 1.52762 33.1387 0.958358 32.0599 0.958358H19.3021C18.5113 0.951821 17.7481 1.24708 17.1723 1.78368C16.5965 2.31973 16.2527 3.05516 16.2124 3.83638C16.1827 4.64644 16.4879 5.43305 17.0566 6.01654C17.6258 6.59999 18.4105 6.92903 19.2304 6.92903H22.6257V11.7398C18.1866 12.266 13.9703 13.9543 10.4117 16.6295L8.6088 14.8471C8.41429 14.6548 8.15035 14.5464 7.87539 14.5464C7.60043 14.5464 7.33649 14.6548 7.14198 14.8471L3.72179 18.2284V18.2279C3.52728 18.4207 3.41818 18.6811 3.41818 18.9535C3.41818 19.2253 3.52728 19.4863 3.72179 19.6786L5.5247 21.461C1.71983 26.421 -0.0715156 32.6085 0.502608 38.8069C1.07622 45.0063 3.97344 50.7693 8.62582 54.9647C13.278 59.1599 19.3482 61.4839 25.645 61.4801C26.2792 61.4801 26.9079 61.4567 27.5322 61.4098L27.5317 52.3547C27.5444 51.3219 26.7217 50.4671 25.6774 50.4274L25.678 50.4276Z" fill="#C1E0FF"/>
</svg>
