<svg width="88" height="87" viewBox="0 0 88 87" fill="none" xmlns="http://www.w3.org/2000/svg">
<path d="M80.4032 22.133C79.8982 21.751 79.2444 21.6132 78.6245 21.7589L70.6904 23.7582C67.7616 23.5955 58.421 20.0684 53.1019 17.8259L52.9946 17.7851C45.929 15.2903 39.8151 15.8509 34.7013 19.4103C27.9007 17.1269 19.1885 21.9459 16.4997 23.5955L9.35094 21.7917C8.7317 21.6324 8.07264 21.765 7.56712 22.1505C7.06156 22.5354 6.76666 23.1295 6.76955 23.7581V52.2016C6.76955 52.7407 6.98771 53.2572 7.37553 53.6381C7.76334 54.019 8.28909 54.2333 8.83792 54.2333H13.2308L32.0368 68.7961C33.502 70.1804 35.5641 70.7722 37.5574 70.38C39.5507 69.9877 41.2221 68.6612 42.0311 66.8296C42.9683 67.3568 44.0286 67.6368 45.1088 67.6419C46.3214 67.6425 47.5073 67.2944 48.5202 66.6403C49.5336 65.9855 50.3294 65.0541 50.8096 63.9606C51.7451 64.4924 52.8064 64.7724 53.8873 64.7735C55.0981 64.7724 56.2823 64.4232 57.2935 63.769C58.3051 63.1149 59.0999 62.184 59.5795 61.0923C60.8589 61.8054 62.3548 62.048 63.7998 61.7759C65.2449 61.5038 66.5439 60.7352 67.4639 59.6077C68.3839 58.4802 68.8652 57.0675 68.8207 55.6226L73.2472 54.2332H79.1626C79.7114 54.2332 80.2371 54.0189 80.625 53.6379C81.0128 53.257 81.2309 52.7406 81.2309 52.2015V23.758C81.2338 23.118 80.9262 22.5148 80.4034 22.1328L80.4032 22.133ZM10.906 26.3591L14.6041 27.2939L13.1233 40.8245L12.0972 50.17H10.906L10.906 26.3591ZM64.1207 57.2072C63.3035 57.981 62.009 57.981 61.1919 57.2072L58.2711 54.3382L46.5724 42.8392C45.7563 42.1181 44.5098 42.1493 43.7313 42.9095C42.9534 43.6691 42.9147 44.8941 43.6442 45.6997L55.3508 57.2153C56.1334 58.0134 56.1207 59.2809 55.3214 60.0638C54.5227 60.8461 53.2322 60.8552 52.422 60.0842L49.4932 57.2074L40.6905 48.5846C39.8814 47.7904 38.5701 47.7904 37.7617 48.5846C36.9526 49.3794 36.9526 50.6674 37.7617 51.4615L46.5725 60.0842C46.9713 60.4635 47.1981 60.9839 47.2021 61.5286C47.2062 62.0734 46.9869 62.5972 46.5944 62.9821C46.2014 63.367 45.6676 63.5808 45.113 63.5751C44.5585 63.5694 44.0286 63.3455 43.6443 62.9532L34.8988 54.3385C34.5121 53.957 33.9869 53.7427 33.4387 53.7427C32.8904 53.7427 32.3653 53.957 31.9786 54.3385C31.589 54.716 31.3709 55.2319 31.3744 55.7693C31.3726 56.3084 31.5902 56.8259 31.9786 57.2074L37.8282 62.9533H37.8277C38.6333 63.7486 38.6333 65.0343 37.8277 65.8296C37.4329 66.1986 36.9083 66.4044 36.3635 66.4044C35.8181 66.4044 35.2941 66.1986 34.8988 65.8296C34.8422 65.7718 34.7816 65.7173 34.717 65.6675L16.1268 51.2994L18.2033 32.4541L18.8075 26.9606C21.4386 25.3354 26.5766 22.8241 30.8375 22.8973L30.8369 22.8967C29.5707 24.3332 28.4385 25.8779 27.4533 27.5128C26.5409 29.0399 26.25 30.85 26.6402 32.579C27.0297 34.3079 28.0714 35.8283 29.5546 36.8345C32.4835 38.801 37.8281 40.6296 44.4469 35.0142L64.1215 54.3311C64.9226 55.1287 64.9226 56.4104 64.1215 57.208L64.1207 57.2072ZM67.3722 51.8191C67.2718 51.6944 67.1638 51.5747 67.0496 51.4614L47.3587 32.1198C48.1863 31.1935 49.0132 30.1613 49.8409 28.9911C50.2212 28.5581 50.3978 27.9872 50.3274 27.4192C50.257 26.8512 49.9459 26.3387 49.471 26.0077C48.996 25.6766 48.401 25.5581 47.8319 25.6806C47.2629 25.8025 46.7729 26.1551 46.4821 26.6511C42.8088 31.7626 37.3152 37.0941 31.9209 33.4774H31.9203C31.308 33.0488 30.8827 32.4094 30.7292 31.686C30.5756 30.9627 30.7061 30.2093 31.0933 29.5767C32.4339 27.2236 34.1871 25.1217 36.2724 23.3678C36.3393 23.3207 36.4034 23.2691 36.4628 23.213C40.5995 19.9626 45.5639 19.4666 51.587 21.5878C53.151 22.238 63.5673 26.5695 69.0278 27.6017L70.848 50.7541L67.3722 51.8191ZM77.0937 50.1695H74.8764L73.081 27.3421L77.0937 26.3592V50.1695Z" fill="#C1E0FF"/>
</svg>
