<svg width="231" height="216" viewBox="0 0 231 216" fill="none" xmlns="http://www.w3.org/2000/svg">
<path d="M177.61 154.916L210.56 187.866C213.555 190.861 215.237 194.921 215.237 199.154C215.241 207.97 208.096 215.115 199.28 215.119C199.276 215.119 199.276 215.119 199.272 215.119C195.039 215.119 190.98 213.437 187.984 210.442L155.034 177.492L177.61 154.916Z" fill="#001F3B"/>
<path d="M155.038 177.481L177.613 154.906L146.977 124.27L124.402 146.845L155.038 177.481Z" fill="#D7BC64"/>
<path d="M171.966 162.441C176.692 162.448 181.41 162.768 186.091 163.396L177.61 154.915L170.035 162.49C170.679 162.478 171.319 162.441 171.966 162.441Z" fill="#163768"/>
<path d="M177.61 154.916L149.194 126.5L126.541 149L143.745 166.204C152.317 163.882 161.144 162.629 170.024 162.479L177.61 154.916Z" fill="#9A8A55"/>
<path d="M87 149C121.242 149 149 121.242 149 87C149 52.7583 121.242 25 87 25C52.7583 25 25 52.7583 25 87C25 121.242 52.7583 149 87 149Z" fill="#B7E5FF"/>
<path d="M73.3555 108.657L78.6768 103.335L56.1016 80.7603L50.7804 86.0816L73.3555 108.657Z" fill="white"/>
<path d="M93.729 108.661L123.831 78.5591L118.51 73.2378L88.4078 103.34L93.729 108.661Z" fill="white"/>
<path d="M231 12H193V19H231V12Z" fill="white"/>
<path d="M33 72H0V79H33V72Z" fill="white"/>
<path d="M152.821 49.5724L176.506 25.8872L171.185 20.566L147.499 44.2511L152.821 49.5724Z" fill="white"/>
<path d="M45.9152 90.949C37.6032 90.949 30.8643 84.2101 30.8643 75.8981C30.8643 67.5861 37.6032 60.8472 45.9152 60.8472C54.2272 60.8472 60.9661 67.5861 60.9661 75.8981C60.9661 84.2101 54.2267 90.949 45.9152 90.949ZM45.9152 68.3726C41.7574 68.3726 38.3897 71.7403 38.3897 75.8981C38.3897 80.0558 41.7574 83.4235 45.9152 83.4235C50.0729 83.4235 53.4406 80.0558 53.4406 75.8981C53.4402 71.7403 50.0729 68.3726 45.9152 68.3726Z" fill="#001F3B"/>
<path d="M83.5421 128.576C75.2301 128.576 68.4912 121.837 68.4912 113.526C68.4912 105.214 75.2301 98.4746 83.5421 98.4746C91.8541 98.4746 98.593 105.214 98.593 113.526C98.593 121.837 91.8541 128.576 83.5421 128.576ZM83.5421 106C79.3844 106 76.0167 109.368 76.0167 113.526C76.0167 117.683 79.3844 121.051 83.5421 121.051C87.6998 121.051 91.0676 117.683 91.0676 113.526C91.0676 109.368 87.6998 106 83.5421 106Z" fill="#001F3B"/>
<path d="M181.372 30.7459C173.06 30.7459 166.321 24.0069 166.321 15.6949C166.321 7.38296 173.06 0.644043 181.372 0.644043C189.684 0.644043 196.423 7.38296 196.423 15.6949C196.423 24.0069 189.684 30.7459 181.372 30.7459ZM181.372 8.1695C177.214 8.1695 173.847 11.5372 173.847 15.6949C173.847 19.8527 177.214 23.2204 181.372 23.2204C185.53 23.2204 188.898 19.8527 188.898 15.6949C188.898 11.5372 185.53 8.1695 181.372 8.1695Z" fill="#001F3B"/>
<path d="M114.732 24C144.006 48.0276 148.279 91.2657 124.276 120.574C105.116 143.97 72.9093 152.043 45 140.443C74.2733 164.47 117.457 160.192 141.46 130.887C165.462 101.583 161.185 58.3449 131.915 34.3137C126.723 30.0524 120.932 26.5767 114.732 24Z" fill="#99C8E0"/>
<path d="M138.878 63.5237L153.929 48.4727L148.607 43.1514L133.556 58.2024L138.878 63.5237Z" fill="white"/>
<path d="M148.408 43.3398L139.821 51.9263C140.736 54.6692 141.488 57.4611 142.079 60.2908L152.585 49.7852C151.301 47.5652 149.909 45.4168 148.408 43.3398Z" fill="#CDCDCD"/>
<path d="M87 12C45.5782 12 12 45.5782 12 87C12 128.422 45.5782 162 87 162C128.422 162 162 128.422 162 87C162 45.5782 128.422 12 87 12ZM87 149.5C52.4812 149.5 24.5001 121.518 24.5001 87C24.5001 52.4815 52.4812 24.5001 87 24.5001C121.519 24.5001 149.5 52.4815 149.5 87C149.5 121.518 121.519 149.5 87 149.5Z" fill="#001F3B"/>
<path d="M128.695 83.4236C120.383 83.4236 113.645 76.6847 113.645 68.3727C113.645 60.0607 120.383 53.3218 128.695 53.3218C137.007 53.3218 143.746 60.0607 143.746 68.3727C143.746 76.6847 137.007 83.4236 128.695 83.4236ZM128.695 60.8472C124.538 60.8472 121.17 64.215 121.17 68.3727C121.17 72.5304 124.538 75.8981 128.695 75.8981C132.853 75.8981 136.221 72.5304 136.221 68.3727C136.221 64.215 132.853 60.8472 128.695 60.8472Z" fill="#001F3B"/>
<circle cx="181" cy="16" r="8" fill="#B7E5FF"/>
</svg>
