<svg width="68" height="68" viewBox="0 0 68 68" fill="none" xmlns="http://www.w3.org/2000/svg">
<path fill-rule="evenodd" clip-rule="evenodd" d="M68 34C68 52.7777 52.7777 68 34 68C15.2223 68 0 52.7777 0 34C0 15.2223 15.2223 0 34 0C52.7777 0 68 15.2223 68 34ZM37.795 16.0097H37.7952C38.6288 16.0086 39.4612 16.0075 40.2933 16C40.4114 18.251 41.2371 20.5438 42.9179 22.1353C44.5952 23.7664 46.9679 24.5131 49.2764 24.7656V30.687C47.113 30.6175 44.9395 30.1763 42.9764 29.2631C42.1214 28.8838 41.3249 28.3952 40.5453 27.8956C40.5418 29.3556 40.5428 30.815 40.5438 32.2734V32.2766V32.2772C40.5457 35.1098 40.5476 37.9389 40.5171 40.7628C40.4001 42.8186 39.7083 44.8644 38.4888 46.5584C36.5268 49.3784 33.1214 51.2169 29.6238 51.2743C27.4784 51.3945 25.3353 50.821 23.5072 49.7644C20.4775 48.0131 18.3457 44.807 18.0352 41.3661C17.9992 40.6305 17.9868 39.8959 18.0172 39.178C18.2872 36.38 19.699 33.7033 21.8905 31.8825C24.3745 29.7616 27.8542 28.7514 31.1121 29.3492C31.1295 30.5972 31.1078 31.8444 31.0861 33.0918V33.0919C31.0699 34.0216 31.0536 34.9513 31.0536 35.8815C29.5653 35.4095 27.826 35.5418 26.5255 36.4274C25.576 37.0307 24.8549 37.9549 24.4792 39.0004C24.215 39.6346 24.2399 40.3287 24.2643 41.0094C24.2686 41.1288 24.2728 41.2478 24.2755 41.3661C24.6322 43.7792 26.9992 45.8073 29.5259 45.5879C31.201 45.5702 32.8064 44.6173 33.6794 43.2222L33.7423 43.1138L33.7424 43.1138C34.0068 42.6594 34.2791 42.1916 34.2948 41.6594C34.4022 39.7417 34.4002 37.8299 34.3982 35.9154V35.9141C34.3975 35.2031 34.3968 34.4916 34.4016 33.7794C34.4061 31.6552 34.405 29.533 34.404 27.4124V27.4088V27.408C34.4021 23.6122 34.4002 19.8211 34.4298 16.0309L34.4286 16.0298C35.5539 16.0127 36.6755 16.0112 37.795 16.0097Z" fill="white"/>
</svg>
